<?xml version="1.0" encoding="utf-8"?>
<!-- Generator: Adobe Illustrator 16.0.0, SVG Export Plug-In . SVG Version: 6.00 Build 0)  -->
<!DOCTYPE svg PUBLIC "-//W3C//DTD SVG 1.1//EN" "http://www.w3.org/Graphics/SVG/1.1/DTD/svg11.dtd">
<svg version="1.1" id="Layer_1" xmlns="http://www.w3.org/2000/svg" xmlns:xlink="http://www.w3.org/1999/xlink" x="0px" y="0px"
	 width="30px" height="40px" viewBox="0 0 30 40" enable-background="new 0 0 30 40" xml:space="preserve">
<path d="M21.913,39.476H30V30.45h-8.087V39.476z M20.498,11.586C20.498,3.843,17.072,0,10.277,0C3.482,0,0,3.843,0,11.586v16.828
	C0,36.157,3.482,40,10.277,40c6.795,0,10.221-3.843,10.221-11.586V11.586z M8.48,11.062c0-2.387,0.056-3.668,1.797-3.668
	c1.741,0,1.797,1.223,1.797,3.668v17.875c0,2.387-0.056,3.668-1.797,3.668c-1.741,0-1.797-1.223-1.797-3.668V11.062z"/>
</svg>
