<svg version="1.1" id="np-logo" xmlns="http://www.w3.org/2000/svg" xmlns:xlink="http://www.w3.org/1999/xlink" x="0px" y="0px"
	 width="70px" height="40px" viewBox="0 0 70 40" enable-background="new 0 0 70 40" xml:space="preserve">
<rect class="np-logo-text-background" x="30" y="0.425" fill="#E6E6E6" width="40" height="20"/>
<g>
	<path class="np-logo-text" d="M33.64,12.677c0-1.764,1.865-2.361,3.819-2.361h1.093V9.761c0-1.21-0.467-1.72-1.633-1.72c-1.049,0-1.632,0.438-1.749,1.37
		h-1.209c0.159-1.734,1.544-2.376,3.016-2.376c1.459,0,2.785,0.598,2.785,2.726v5.029h-1.21v-0.962
		c-0.568,0.714-1.253,1.093-2.376,1.093C34.763,14.921,33.64,14.236,33.64,12.677z M38.552,12.123v-0.947h-1.05
		c-1.53,0-2.653,0.379-2.653,1.501c0,0.787,0.38,1.282,1.443,1.282C37.576,13.959,38.552,13.304,38.552,12.123z"/>
	<path class="np-logo-text" d="M41.259,3.522h1.224V14.79h-1.224V3.522z"/>
	<path class="np-logo-text" d="M44.009,7.167h1.209V8.45c0.438-0.743,1.474-1.415,2.58-1.415c1.998,0,3.47,1.458,3.47,3.834v0.116
		c0,2.333-1.369,3.936-3.47,3.936c-1.253,0-2.142-0.626-2.58-1.384v3.906h-1.209V7.167z M50.015,11.044v-0.116
		c0-1.924-1.064-2.886-2.347-2.886c-1.415,0-2.493,0.933-2.493,2.886v0.116c0,1.953,1.02,2.872,2.507,2.872
		C49.198,13.916,50.015,12.895,50.015,11.044z"/>
	<path class="np-logo-text" d="M52.333,3.522h1.211v4.854c0.349-0.714,1.194-1.341,2.448-1.341c1.575,0,2.682,0.86,2.682,3.076v4.679h-1.21v-4.767
		c0-1.341-0.568-1.938-1.793-1.938c-1.122,0-2.127,0.714-2.127,2.085v4.62h-1.211V3.522z"/>
	<path class="np-logo-text" d="M59.619,12.677c0-1.764,1.865-2.361,3.818-2.361h1.094V9.761c0-1.21-0.467-1.72-1.634-1.72
		c-1.048,0-1.632,0.438-1.748,1.37h-1.21c0.16-1.734,1.545-2.376,3.017-2.376c1.458,0,2.785,0.598,2.785,2.726v5.029h-1.21v-0.962
		c-0.569,0.714-1.254,1.093-2.377,1.093C60.741,14.921,59.619,14.236,59.619,12.677z M64.531,12.123v-0.947h-1.05
		c-1.53,0-2.653,0.379-2.653,1.501c0,0.787,0.38,1.282,1.443,1.282C63.554,13.959,64.531,13.304,64.531,12.123z"/>
</g>
<g>
	<path class="np-logo-image" d="M21.912,39.476H30V30.45h-8.088V39.476z M20.498,11.586C20.498,3.843,17.072,0,10.277,0C3.48,0,0,3.843,0,11.586v16.827
		C0,36.157,3.48,40,10.277,40c6.795,0,10.221-3.843,10.221-11.587V11.586z M8.479,11.062c0-2.387,0.056-3.668,1.798-3.668
		c1.74,0,1.797,1.223,1.797,3.668v17.874c0,2.387-0.057,3.668-1.797,3.668c-1.742,0-1.798-1.223-1.798-3.668V11.062z"/>
</g>
</svg>