<?xml version="1.0" encoding="utf-8"?>
<!-- Generator: Adobe Illustrator 16.0.0, SVG Export Plug-In . SVG Version: 6.00 Build 0)  -->
<!DOCTYPE svg PUBLIC "-//W3C//DTD SVG 1.1//EN" "http://www.w3.org/Graphics/SVG/1.1/DTD/svg11.dtd">
<svg version="1.1" xmlns="http://www.w3.org/2000/svg" xmlns:xlink="http://www.w3.org/1999/xlink" x="0px" y="0px" width="30px"
	 height="30px" viewBox="0 0 1024 1024" xml:space="preserve">
<g id="Inbox">
	<g>
		<g>
			<path fill="#FFFFFF" d="M528,128c0-8.8369-7.1641-16-16-16s-16,7.1631-16,16c0,175.667-144,192.334-144,320
				c0,88.3652,71.6348,160,160,160c88.3662,0,160-71.6348,160-160C672,320.334,528,304.334,528,128z"/>
		</g>
	</g>
	<path fill="#FFFFFF" d="M721.9355,371.4839C731.3564,395.7578,736,421.0195,736,448c0,30.2114-5.9316,59.5532-17.6289,87.21
		c-11.2852,26.6816-27.4277,50.6309-47.9785,71.1816c-20.5508,20.5513-44.5,36.6934-71.1816,47.979
		C571.5537,666.0684,542.2119,672,512,672c-30.2114,0-59.5537-5.9316-87.2104-17.6294
		c-26.6812-11.2856-50.6304-27.4277-71.1812-47.979c-20.5513-20.5508-36.6934-44.5-47.979-71.1812
		C293.9312,507.5537,288,478.2114,288,448c0-26.9639,4.6377-52.2246,14.0464-76.5117L128,415v1v341l384,139l384-139V416v-1
		L721.9355,371.4839z"/>
</g>
</svg>