<?xml version="1.0" encoding="utf-8"?>
<!-- Generator: Adobe Illustrator 16.0.0, SVG Export Plug-In . SVG Version: 6.00 Build 0)  -->
<!DOCTYPE svg PUBLIC "-//W3C//DTD SVG 1.1//EN" "http://www.w3.org/Graphics/SVG/1.1/DTD/svg11.dtd">
<svg version="1.1" xmlns="http://www.w3.org/2000/svg" xmlns:xlink="http://www.w3.org/1999/xlink" x="0px" y="0px" width="30px"
	 height="30px" viewBox="0 0 1024 1024" xml:space="preserve">
<g id="Current">
	<g>
		<polygon fill="#FFFFFF" points="885.9385,471.7939 802,527.7612 802,303 718,303 718,583.8438 633,640.1421 633,471.6992 
			381,640.1448 381,471.6992 128.1675,640.2395 128.002,893 885.9961,893 		"/>
		<path fill="#FFFFFF" d="M802,219.0334c0-28.0754,0-56.1477,0-84.2229c-197-84.2229-393,84.2229-590,0
			c0,28.0752,0,56.1475,0,84.2229C409,303.2563,605,134.8105,802,219.0334z"/>
	</g>
</g>
<g id="Inbox">
	<g>
		<g>
			<path fill="#FFFFFF" d="M528,128c0-8.8369-7.1641-16-16-16s-16,7.1631-16,16c0,175.667-144,192.334-144,320
				c0,88.3652,71.6348,160,160,160c88.3662,0,160-71.6348,160-160C672,320.334,528,304.334,528,128z"/>
		</g>
	</g>
	<path fill="#FFFFFF" d="M721.9355,371.4839C731.3564,395.7578,736,421.0195,736,448c0,30.2114-5.9316,59.5532-17.6289,87.21
		c-11.2852,26.6816-27.4277,50.6309-47.9785,71.1816c-20.5508,20.5513-44.5,36.6934-71.1816,47.979
		C571.5537,666.0684,542.2119,672,512,672c-30.2114,0-59.5537-5.9316-87.2104-17.6294
		c-26.6812-11.2856-50.6304-27.4277-71.1812-47.979c-20.5513-20.5508-36.6934-44.5-47.979-71.1812
		C293.9312,507.5537,288,478.2114,288,448c0-26.9639,4.6377-52.2246,14.0464-76.5117L128,415v1v341l384,139l384-139V416v-1
		L721.9355,371.4839z"/>
</g>
<g id="Bookmarks">
	<path fill="none" stroke="#FFFFFF" stroke-width="64" stroke-linecap="round" stroke-miterlimit="10" d="M414.4194,659.0312
		l226.3169-226.3164c24.9922-24.9932,24.9922-65.5156,0-90.5098c-24.9941-24.9932-65.5176-24.9922-90.5117,0.001L233.4419,658.9902
		c-43.7388,43.7383-43.7388,114.6533,0,158.3916c43.7388,43.7393,114.6533,43.7383,158.3926-0.001L776.5,432.7148
		c62.4824-62.4824,62.4824-163.7891,0-226.2734c-62.4844-62.4834-163.791-62.4824-226.2734,0L256.0278,500.6396"/>
</g>
<g id="Tags">
	<path fill="#FFFFFF" d="M457.1445,128H128v329.1436l438.8594,438.8594L896,566.8574L457.1445,128z M319.9961,400.0029
		c-44.1777,0-79.9961-35.8223-79.9961-80c0-44.1895,35.8184-80,79.9961-80c44.1855,0,80.0039,35.8105,80.0039,80
		C400,364.1807,364.1816,400.0029,319.9961,400.0029z"/>
</g>
<g id="Amplify">
	<path fill="#FFFFFF" d="M484.8276,640.0327l-49.0269-41.1382l41.1382-49.0269l61.7075-73.541l41.1387-49.0273l49.0273,41.1387
		l235.1641,197.3257C884.5723,618.6836,896,566.6763,896,512c0-212.0771-171.9229-384-384-384S128,299.9229,128,512
		s171.9229,384,384,384c75.9277,0,146.7061-22.04,206.293-60.0664L484.8276,640.0327z"/>
	<path fill="#FFFFFF" d="M525.9658,591.0059L770.3672,796.083c23.71-21.5762,44.708-46.0806,62.4229-72.9409L587.6738,517.4648
		L525.9658,591.0059z"/>
</g>
<g id="Downloads">
	<rect x="416" y="144" fill="#FFFFFF" width="192" height="532"/>
	<polyline fill="#FFFFFF" points="800,560 512,847.001 224.9995,560 	"/>
</g>
<g id="Profile">
	<g>
		
			<line fill="#FFFFFF" stroke="#000000" stroke-width="0" stroke-linecap="round" stroke-linejoin="round" x1="512" y1="512" x2="512" y2="512"/>
		
			<line fill="#FFFFFF" stroke="#000000" stroke-width="0" stroke-linecap="round" stroke-linejoin="round" x1="512" y1="512" x2="512" y2="512"/>
		<circle fill="#FFFFFF" cx="320" cy="256" r="64"/>
		<circle fill="#FFFFFF" cx="223" cy="576" r="64"/>
		<circle fill="#FFFFFF" cx="384" cy="736" r="64"/>
		<circle fill="#FFFFFF" cx="640" cy="736" r="64"/>
		<circle fill="#FFFFFF" cx="768" cy="448" r="64"/>
		<circle fill="#FFFFFF" cx="512" cy="288" r="64"/>
		<circle fill="#FFFFFF" cx="736" cy="192" r="64"/>
		<path fill="#FFFFFF" d="M468.1738,426.6025l-78.3154-104.8281c-7.3311,7.7815-15.9429,14.3406-25.4961,19.3398l78.1943,104.6665
			C449.9341,438.0474,458.5874,431.542,468.1738,426.6025z"/>
		<path fill="#FFFFFF" d="M672.2861,455.436l-72.3447,18.0862c4.2305,9.6304,6.9287,20.0796,7.7725,31.0417l72.3447-18.0862
			C675.8281,476.8474,673.1299,466.3982,672.2861,455.436z"/>
		<path fill="#FFFFFF" d="M694.8311,278.7126c-9.7451-4.6458-18.5879-10.887-26.1914-18.3838L553.168,425.2871
			c9.7461,4.6458,18.5889,10.8872,26.1924,18.3838L694.8311,278.7126z"/>
		<path fill="#FFFFFF" d="M528,417.3408v-34.6816C522.7949,383.5364,517.4512,384,512,384c-5.4507,0-10.7949-0.4636-16-1.3408
			v34.6816c5.2051-0.8772,10.5493-1.3408,16-1.3408C517.4512,416,522.7949,416.4636,528,417.3408z"/>
		<path fill="#FFFFFF" d="M417.0732,645.8726c10.1685,3.7432,19.5332,9.1621,27.7603,15.9182l34.0933-59.6633
			c-10.1689-3.7434-19.5332-9.1621-27.7603-15.9185L417.0732,645.8726z"/>
		<path fill="#FFFFFF" d="M312.0103,540.0518c3.9448,9.7327,6.3413,20.2517,6.8735,31.2534l104.1895-23.1533
			c-3.9678-9.7249-6.3916-20.2378-6.9487-31.2366L312.0103,540.0518z"/>
		<path fill="#FFFFFF" d="M579.167,661.7908c8.2266-6.7561,17.5908-12.1748,27.7598-15.9182l-34.0938-59.6633
			c-8.2266,6.7561-17.5908,12.1748-27.7598,15.9182L579.167,661.7908z"/>
		<circle fill="#FFFFFF" cx="512" cy="512" r="64"/>
	</g>
</g>
</svg>