<?xml version="1.0" encoding="utf-8"?>
<!-- Generator: Adobe Illustrator 16.0.0, SVG Export Plug-In . SVG Version: 6.00 Build 0)  -->
<!DOCTYPE svg PUBLIC "-//W3C//DTD SVG 1.1//EN" "http://www.w3.org/Graphics/SVG/1.1/DTD/svg11.dtd">
<svg version="1.1" xmlns="http://www.w3.org/2000/svg" xmlns:xlink="http://www.w3.org/1999/xlink" x="0px" y="0px" width="30px"
	 height="30px" viewBox="0 0 1024 1024" xml:space="preserve">
<g id="Amplify">
	<path fill="#FFFFFF" d="M484.8276,640.0327l-49.0269-41.1382l41.1382-49.0269l61.7075-73.541l41.1387-49.0273l49.0273,41.1387
		l235.1641,197.3257C884.5723,618.6836,896,566.6763,896,512c0-212.0771-171.9229-384-384-384S128,299.9229,128,512
		s171.9229,384,384,384c75.9277,0,146.7061-22.04,206.293-60.0664L484.8276,640.0327z"/>
	<path fill="#FFFFFF" d="M525.9658,591.0059L770.3672,796.083c23.71-21.5762,44.708-46.0806,62.4229-72.9409L587.6738,517.4648
		L525.9658,591.0059z"/>
</g>
</svg>